# xmcd CD Database Entry
#
# Track frame offsets:
# 150
# 22016
# 44125
# 60789
# 77329
# 97511
# 111906
# 130483
# 154284
# 173536
# 196730
# 213460
# 230861
# 249607
# 270874
# 290339
# 309526
# 328959
#
# Disc length: 4651 seconds
#
# Revision: 3
# Processed by: cddbd v1.4PL0 Copyright (c) Steve Scherf et al.
# Submitted via: tcd 2.0b
#
DISCID=f6122912
DTITLE=Black - >>the collection<<
DYEAR=1900
DGENRE=
TTITLE0=Wonderful Life
TTITLE1=Paradise
TTITLE2=The Big One
TTITLE3=Now You're Gone
TTITLE4=All We Need Is The Money
TTITLE5=Let Me Watch You Make Love
TTITLE6=She's My Best Friend
TTITLE7=Sweetest Smile
TTITLE8=Finder
TTITLE9=It's Not Over Yet
TTITLE10=Hey, I Was Right, You Were Wrong
TTITLE11=Ravel In The Rain
TTITLE12=Everything Is Coming Up Roses
TTITLE13=You Don't Always Do What's Best For You
TTITLE14=You're A Big Girl Now
TTITLE15=Here It Comes Again
TTITLE16=I Just Grew Tired
TTITLE17=Just Making Memories
EXTD=
EXTT0=
EXTT1=
EXTT2=
EXTT3=
EXTT4=
EXTT5=
EXTT6=
EXTT7=
EXTT8=
EXTT9=
EXTT10=
EXTT11=
EXTT12=
EXTT13=
EXTT14=
EXTT15=
EXTT16=
EXTT17=
PLAYORDER=
